<svg width="1280" height="312" viewBox="0 0 1280 312" fill="none" xmlns="http://www.w3.org/2000/svg">
<rect x="4" y="4" width="1272" height="304" fill="white" stroke="#4E4E4E" stroke-width="8"/>
<path d="M1049.6 242.717H1075.14L1029.16 304.022H1024.05L1049.6 242.717Z" fill="#CBB57A"/>
<path d="M1100.68 304.022H1095.58L1049.6 242.717H1075.14L1100.68 304.022Z" fill="#9E8E60"/>
<path d="M1113.46 237.609C1113.46 243.252 1108.88 247.826 1103.24 247.826H1021.5C1015.86 247.826 1011.28 243.252 1011.28 237.609C1011.28 231.966 1015.86 227.391 1021.5 227.391H1021.94L1029.06 145.537C1030.56 128.26 1045.03 115 1062.37 115C1079.71 115 1094.17 128.26 1095.68 145.537L1102.79 227.391H1103.24C1108.88 227.391 1113.46 231.966 1113.46 237.609Z" fill="#4D4337"/>
<path d="M1093.02 229.946C1093.02 231.356 1091.88 232.5 1090.47 232.5H1034.27C1032.86 232.5 1031.72 231.356 1031.72 229.946C1031.72 228.535 1032.86 227.391 1034.27 227.391H1039.38L1043.63 178.475C1044.48 168.756 1052.61 161.298 1062.37 161.298C1072.12 161.298 1080.26 168.756 1081.11 178.475L1085.36 227.391H1090.47C1091.88 227.391 1093.02 228.535 1093.02 229.946Z" fill="#635547"/>
<path d="M965.304 304.022H904V206.957H965.304V304.022ZM1139 206.957H1128.78V304.022H1139V206.957Z" fill="#9E8E60"/>
<path d="M955.087 252.935H914.217V222.283H955.087V252.935ZM955.087 263.152H914.217V293.804H955.087V263.152Z" fill="#766A54"/>
<path d="M955.087 222.283V252.935H914.217V222.283H924.435V227.391C924.435 230.213 926.722 232.5 929.543 232.5H939.761C942.582 232.5 944.869 230.213 944.869 227.391V222.283H955.087ZM944.869 263.152V268.261C944.869 271.082 942.582 273.37 939.761 273.37H929.543C926.722 273.37 924.435 271.082 924.435 268.261V263.152H914.217V293.804H955.087V263.152H944.869Z" fill="#D6CFBA"/>
<path d="M934.652 162V195.717C934.652 196.282 934.195 196.739 933.63 196.739H925.457C924.892 196.739 924.435 196.282 924.435 195.717V162C924.435 161.435 924.892 160.978 925.457 160.978H933.63C934.195 160.978 934.652 161.435 934.652 162Z" fill="#833428"/>
<path d="M944.516 161.245L953.779 193.665C953.934 194.208 953.62 194.773 953.077 194.928L945.218 197.174C944.675 197.329 944.11 197.015 943.955 196.472L934.692 164.052C934.537 163.509 934.851 162.944 935.394 162.789L943.253 160.543C943.796 160.388 944.361 160.702 944.516 161.245Z" fill="#374145"/>
<path d="M949.849 179.911L940.025 182.718L935.814 167.981L945.638 165.175L949.849 179.911Z" fill="#64757C"/>
<path d="M934.652 171.196H924.435V166.087H934.652V171.196Z" fill="#AC8428"/>
<path d="M969.516 197.809C968.689 197.993 967.871 197.472 967.687 196.646L959.93 161.736C959.746 160.91 960.267 160.091 961.093 159.908C961.919 159.725 962.738 160.246 962.922 161.072L970.679 195.981C970.863 196.807 970.342 197.626 969.516 197.809Z" fill="#374145"/>
<path d="M976.091 157.735L968.333 192.644C968.15 193.47 967.331 193.991 966.505 193.808C965.679 193.624 965.158 192.805 965.341 191.979L973.099 157.07C973.282 156.244 974.101 155.723 974.927 155.906C975.753 156.09 976.275 156.909 976.091 157.735Z" fill="#DDA333"/>
<path d="M970.413 187.543V205.935C970.413 206.499 969.956 206.957 969.391 206.957H920.348C919.783 206.957 919.326 206.499 919.326 205.935V187.543C919.326 186.979 919.783 186.522 920.348 186.522H969.391C969.956 186.522 970.413 186.979 970.413 187.543Z" fill="#E0CFA6"/>
<path d="M975.522 177.326V205.935C975.522 206.499 975.064 206.956 974.5 206.956H961.217C960.653 206.956 960.196 206.499 960.196 205.935V177.326C960.196 176.762 960.653 176.304 961.217 176.304H974.5C975.064 176.304 975.522 176.762 975.522 177.326Z" fill="#D66A40"/>
<path d="M1031.72 199.294V204.402H1011.28H990.848V199.294C990.848 196.472 993.135 194.185 995.957 194.185H1006.17C1009 194.185 1011.28 196.472 1011.28 199.294C1011.28 196.472 1013.57 194.185 1016.39 194.185H1026.61C1029.43 194.185 1031.72 196.472 1031.72 199.294Z" fill="#CBB175"/>
<path d="M1031.72 199.294V204.402H1011.28V199.294C1011.28 196.472 1013.57 194.185 1016.39 194.185H1026.61C1029.43 194.185 1031.72 196.472 1031.72 199.294Z" fill="#E9CC85"/>
<path d="M1034.19 199.804V202.87C1034.19 203.434 1033.73 203.891 1033.16 203.891H989.4C988.835 203.891 988.378 203.434 988.378 202.87V199.804C988.378 199.24 988.835 198.783 989.4 198.783H1033.16C1033.73 198.783 1034.19 199.24 1034.19 199.804Z" fill="#833428"/>
<path d="M1014.35 201.848V202.87C1014.35 203.434 1013.89 203.891 1013.33 203.891H1009.24C1008.67 203.891 1008.22 203.434 1008.22 202.87V201.848C1008.22 200.155 1009.59 198.783 1011.28 198.783C1012.98 198.783 1014.35 200.155 1014.35 201.848Z" fill="#3F0900"/>
<path d="M1139 212.065H904V201.848H1139V212.065Z" fill="#CBB57A"/>
<path d="M129.732 146.132C128.652 146.132 127.908 145.892 127.5 145.412C127.092 144.932 126.888 144.32 126.888 143.576C126.888 142.88 127.032 142.052 127.32 141.092C127.608 140.132 127.908 139.208 128.22 138.32C128.628 137.144 129.12 135.764 129.696 134.18C130.272 132.596 130.884 130.94 131.532 129.212C132.204 127.484 132.876 125.78 133.548 124.1C134.244 122.42 134.916 120.896 135.564 119.528C133.908 119.552 132.516 119.588 131.388 119.636C130.284 119.684 129.288 119.756 128.4 119.852C127.512 119.924 126.54 120.056 125.484 120.248C125.556 119.432 125.976 118.796 126.744 118.34C127.512 117.884 128.544 117.56 129.84 117.368C131.136 117.176 132.612 117.08 134.268 117.08C135.924 117.08 137.4 117.152 138.696 117.296C140.016 117.416 141.252 117.536 142.404 117.656C143.556 117.776 144.708 117.848 145.86 117.872C145.044 118.616 144.108 119.084 143.052 119.276C141.996 119.468 140.88 119.564 139.704 119.564C139.44 119.564 139.164 119.564 138.876 119.564C138.588 119.54 138.3 119.528 138.012 119.528C137.724 119.528 137.436 119.528 137.148 119.528C136.38 121.448 135.492 123.872 134.484 126.8C133.5 129.728 132.504 133.028 131.496 136.7C131.16 137.972 130.848 139.112 130.56 140.12C130.296 141.128 130.08 142.052 129.912 142.892C129.768 143.732 129.696 144.548 129.696 145.34C129.696 145.46 129.696 145.592 129.696 145.736C129.696 145.88 129.708 146.012 129.732 146.132ZM143.348 144.08C142.532 144.08 141.872 143.72 141.368 143C140.888 142.256 140.648 141.404 140.648 140.444C140.648 139.748 140.756 138.944 140.972 138.032C141.212 137.12 141.5 136.22 141.836 135.332C142.172 134.444 142.52 133.712 142.88 133.136C143.24 132.56 143.552 132.272 143.816 132.272C143.936 132.272 144.14 132.344 144.428 132.488C144.716 132.608 144.956 132.776 145.148 132.992C144.884 133.4 144.56 134.024 144.176 134.864C143.792 135.704 143.456 136.604 143.168 137.564C142.88 138.524 142.736 139.412 142.736 140.228C142.736 140.42 142.76 140.72 142.808 141.128C142.856 141.512 142.976 141.86 143.168 142.172C143.36 142.484 143.648 142.64 144.032 142.64C144.488 142.64 144.956 142.412 145.436 141.956C145.916 141.476 146.396 140.864 146.876 140.12C147.38 139.376 147.86 138.572 148.316 137.708C148.772 136.844 149.192 136.016 149.576 135.224C149.984 134.432 150.32 133.772 150.584 133.244C150.728 133.268 150.932 133.316 151.196 133.388C151.484 133.46 151.736 133.556 151.952 133.676C152.192 133.796 152.312 133.964 152.312 134.18C152.312 134.276 152.192 134.6 151.952 135.152C151.712 135.68 151.424 136.34 151.088 137.132C150.776 137.9 150.5 138.68 150.26 139.472C150.02 140.264 149.9 140.96 149.9 141.56C149.9 141.992 149.984 142.34 150.152 142.604C150.344 142.868 150.656 143 151.088 143C151.592 143 152.204 142.772 152.924 142.316C153.644 141.86 154.376 141.2 155.12 140.336C155.864 139.448 156.524 138.392 157.1 137.168L157.568 137.492C157.064 138.788 156.404 139.94 155.588 140.948C154.772 141.932 153.908 142.7 152.996 143.252C152.084 143.804 151.196 144.08 150.332 144.08C149.708 144.08 149.204 143.96 148.82 143.72C148.46 143.48 148.196 143.156 148.028 142.748C147.884 142.34 147.812 141.896 147.812 141.416C147.812 141.128 147.836 140.84 147.884 140.552C147.932 140.24 147.992 139.928 148.064 139.616C147.632 140.408 147.164 141.152 146.66 141.848C146.156 142.52 145.628 143.06 145.076 143.468C144.524 143.876 143.948 144.08 143.348 144.08ZM154.364 135.26C153.812 135.26 153.32 135.14 152.888 134.9C152.48 134.636 152.084 134.384 151.7 134.144C151.316 133.904 150.896 133.784 150.44 133.784L150.584 133.244C151.16 133.244 151.58 133.316 151.844 133.46C152.132 133.604 152.396 133.748 152.636 133.892C152.876 134.036 153.236 134.108 153.716 134.108C154.46 134.108 154.832 133.784 154.832 133.136C154.832 132.656 154.688 132.272 154.4 131.984C154.112 131.672 153.812 131.408 153.5 131.192C153.692 130.976 153.908 130.808 154.148 130.688C154.388 130.544 154.676 130.472 155.012 130.472C155.492 130.472 155.888 130.688 156.2 131.12C156.536 131.552 156.704 132.104 156.704 132.776C156.704 133.448 156.488 134.036 156.056 134.54C155.648 135.02 155.084 135.26 154.364 135.26ZM158.918 144.152C157.886 144.152 157.154 143.828 156.722 143.18C156.29 142.556 156.074 141.788 156.074 140.876C156.074 140.132 156.194 139.364 156.434 138.572C156.674 137.78 156.986 137.036 157.37 136.34C157.778 135.644 158.222 135.08 158.702 134.648C159.206 134.216 159.71 134 160.214 134C160.334 134 160.454 134.024 160.574 134.072C160.718 134.096 160.85 134.132 160.97 134.18C160.754 134.372 160.49 134.732 160.178 135.26C159.89 135.764 159.614 136.352 159.35 137.024C159.086 137.672 158.858 138.32 158.666 138.968C158.498 139.616 158.414 140.168 158.414 140.624C158.414 141.344 158.534 141.872 158.774 142.208C159.014 142.52 159.326 142.676 159.71 142.676C160.214 142.676 160.814 142.412 161.51 141.884C162.206 141.332 162.89 140.636 163.562 139.796C162.89 139.244 162.362 138.524 161.978 137.636C161.618 136.724 161.438 135.8 161.438 134.864C161.438 134.072 161.57 133.328 161.834 132.632C162.122 131.936 162.53 131.384 163.058 130.976C163.586 130.544 164.222 130.328 164.966 130.328C165.95 130.328 166.61 130.592 166.946 131.12C167.282 131.648 167.45 132.308 167.45 133.1C167.45 134.036 167.222 135.08 166.766 136.232C166.31 137.36 165.734 138.452 165.038 139.508C165.47 139.748 165.926 139.868 166.406 139.868C166.79 139.868 167.222 139.796 167.702 139.652C168.182 139.484 168.65 139.208 169.106 138.824C169.586 138.44 169.97 137.924 170.258 137.276L170.69 137.636C170.21 138.764 169.526 139.568 168.638 140.048C167.774 140.504 166.946 140.732 166.154 140.732C165.842 140.732 165.542 140.708 165.254 140.66C164.966 140.588 164.69 140.492 164.426 140.372C163.61 141.452 162.71 142.352 161.726 143.072C160.766 143.792 159.83 144.152 158.918 144.152ZM164.21 138.86C164.81 137.972 165.302 137.048 165.686 136.088C166.094 135.104 166.298 134.18 166.298 133.316C166.298 132.62 166.19 132.116 165.974 131.804C165.782 131.468 165.53 131.3 165.218 131.3C164.738 131.3 164.246 131.648 163.742 132.344C163.238 133.04 162.986 133.916 162.986 134.972C162.986 135.668 163.082 136.376 163.274 137.096C163.49 137.792 163.802 138.38 164.21 138.86ZM168.746 132.344C168.194 132.344 167.702 132.224 167.27 131.984C166.862 131.72 166.466 131.468 166.082 131.228C165.698 130.988 165.278 130.868 164.822 130.868L164.966 130.328C165.542 130.328 165.962 130.4 166.226 130.544C166.514 130.688 166.778 130.832 167.018 130.976C167.258 131.12 167.618 131.192 168.098 131.192C168.842 131.192 169.214 130.868 169.214 130.22C169.214 129.74 169.07 129.356 168.782 129.068C168.494 128.756 168.194 128.492 167.882 128.276C168.074 128.06 168.29 127.892 168.53 127.772C168.77 127.628 169.058 127.556 169.394 127.556C169.874 127.556 170.27 127.772 170.582 128.204C170.918 128.636 171.086 129.188 171.086 129.86C171.086 130.532 170.87 131.12 170.438 131.624C170.03 132.104 169.466 132.344 168.746 132.344ZM181.21 143.72C180.37 143.72 179.734 143.504 179.302 143.072C178.894 142.64 178.69 142.088 178.69 141.416C178.69 140.912 178.774 140.384 178.942 139.832C179.134 139.28 179.314 138.716 179.482 138.14C179.65 137.54 179.734 136.964 179.734 136.412C179.734 135.74 179.59 135.284 179.302 135.044C179.038 134.78 178.702 134.648 178.294 134.648C177.55 134.648 176.794 134.96 176.026 135.584C175.258 136.184 174.514 136.964 173.794 137.924C173.074 138.86 172.402 139.832 171.778 140.84C171.154 141.848 170.602 142.748 170.122 143.54C169.738 143.54 169.378 143.468 169.042 143.324C168.682 143.204 168.406 143.012 168.214 142.748C168.214 142.628 168.346 142.256 168.61 141.632C168.85 141.008 169.138 140.24 169.474 139.328C169.81 138.416 170.11 137.48 170.374 136.52C170.638 135.56 170.77 134.684 170.77 133.892C170.914 133.724 171.142 133.556 171.454 133.388C171.766 133.22 172.09 133.136 172.426 133.136C173.074 133.136 173.398 133.448 173.398 134.072C173.398 134.456 173.29 135.104 173.074 136.016C172.858 136.904 172.582 137.84 172.246 138.824C172.894 137.84 173.614 136.868 174.406 135.908C175.222 134.924 176.086 134.108 176.998 133.46C177.91 132.812 178.822 132.488 179.734 132.488C180.67 132.488 181.342 132.824 181.75 133.496C182.182 134.168 182.398 134.912 182.398 135.728C182.398 136.472 182.278 137.168 182.038 137.816C181.798 138.44 181.546 139.052 181.282 139.652C181.042 140.228 180.922 140.816 180.922 141.416C180.922 141.92 181.018 142.28 181.21 142.496C181.426 142.688 181.69 142.784 182.002 142.784C182.602 142.784 183.202 142.508 183.802 141.956C184.402 141.38 184.978 140.66 185.53 139.796C186.106 138.932 186.61 138.056 187.042 137.168L187.438 137.636C186.934 138.812 186.37 139.856 185.746 140.768C185.122 141.68 184.438 142.4 183.694 142.928C182.95 143.456 182.122 143.72 181.21 143.72ZM187.72 153.08C187.192 153.08 186.712 152.912 186.28 152.576C185.848 152.264 185.632 151.736 185.632 150.992C185.632 150.272 185.86 149.6 186.316 148.976C186.748 148.376 187.312 147.812 188.008 147.284C188.704 146.78 189.46 146.312 190.276 145.88C191.116 145.448 191.908 145.04 192.652 144.656C192.988 143.816 193.3 142.916 193.588 141.956C193.9 140.972 194.2 139.892 194.488 138.716C193.576 140.036 192.616 141.14 191.608 142.028C190.624 142.892 189.628 143.324 188.62 143.324C187.756 143.324 187.084 143 186.604 142.352C186.148 141.704 185.92 140.864 185.92 139.832C185.92 138.584 186.22 137.396 186.82 136.268C187.444 135.14 188.248 134.144 189.232 133.28C190.216 132.416 191.26 131.744 192.364 131.264C193.468 130.76 194.5 130.508 195.46 130.508C196.156 130.508 196.648 130.628 196.936 130.868C197.248 131.084 197.404 131.348 197.404 131.66C197.404 131.876 197.344 132.044 197.224 132.164C197.104 132.284 197.02 132.356 196.972 132.38C196.852 132.188 196.672 132.056 196.432 131.984C196.192 131.888 195.892 131.84 195.532 131.84C194.596 131.84 193.684 132.116 192.796 132.668C191.932 133.22 191.164 133.928 190.492 134.792C189.82 135.656 189.28 136.556 188.872 137.492C188.488 138.404 188.296 139.244 188.296 140.012C188.296 140.588 188.404 141.032 188.62 141.344C188.86 141.632 189.172 141.776 189.556 141.776C190.252 141.776 191.08 141.32 192.04 140.408C193.024 139.472 193.972 138.344 194.884 137.024C194.956 136.688 195.016 136.388 195.064 136.124C195.136 135.86 195.22 135.524 195.316 135.116C195.388 134.78 195.556 134.396 195.82 133.964C196.108 133.508 196.552 133.28 197.152 133.28C197.272 133.28 197.392 133.292 197.512 133.316C197.632 133.316 197.764 133.34 197.908 133.388C197.908 133.772 197.788 134.48 197.548 135.512C197.332 136.52 197.008 137.708 196.576 139.076C196.168 140.42 195.688 141.812 195.136 143.252C195.928 142.868 196.696 142.376 197.44 141.776C198.208 141.176 198.904 140.492 199.528 139.724C200.152 138.932 200.644 138.08 201.004 137.168L201.472 137.528C201.112 138.608 200.536 139.592 199.744 140.48C198.952 141.368 198.1 142.136 197.188 142.784C196.3 143.432 195.484 143.936 194.74 144.296C194.068 145.904 193.36 147.368 192.616 148.688C191.872 150.032 191.092 151.1 190.276 151.892C189.484 152.684 188.632 153.08 187.72 153.08ZM187.612 151.928C188.092 151.928 188.74 151.448 189.556 150.488C190.396 149.552 191.296 147.932 192.256 145.628C191.296 146.108 190.396 146.6 189.556 147.104C188.74 147.632 188.068 148.184 187.54 148.76C187.012 149.336 186.748 149.972 186.748 150.668C186.748 151.052 186.832 151.352 187 151.568C187.168 151.808 187.372 151.928 187.612 151.928ZM212.683 144.08C211.651 144.08 210.907 143.72 210.451 143C210.019 142.304 209.803 141.428 209.803 140.372C209.803 139.22 210.019 137.852 210.451 136.268C210.883 134.684 211.447 133.016 212.143 131.264C212.863 129.512 213.643 127.808 214.483 126.152C215.323 124.472 216.163 122.948 217.003 121.58C217.843 120.212 218.611 119.12 219.307 118.304C220.027 117.488 220.591 117.08 220.999 117.08C221.263 117.08 221.479 117.236 221.647 117.548C221.815 117.836 221.947 118.196 222.043 118.628C222.139 119.036 222.187 119.408 222.187 119.744C222.187 120.392 222.019 121.244 221.683 122.3C221.371 123.332 220.915 124.496 220.315 125.792C219.739 127.064 219.043 128.36 218.227 129.68C217.435 130.976 216.559 132.224 215.599 133.424C214.663 134.624 213.667 135.656 212.611 136.52C212.467 137.168 212.347 137.804 212.251 138.428C212.179 139.028 212.143 139.604 212.143 140.156C212.143 141.092 212.275 141.788 212.539 142.244C212.803 142.7 213.199 142.928 213.727 142.928C214.375 142.928 215.011 142.64 215.635 142.064C216.283 141.488 216.883 140.768 217.435 139.904C218.011 139.016 218.503 138.104 218.911 137.168L219.451 137.456C218.491 139.496 217.447 141.116 216.319 142.316C215.191 143.492 213.979 144.08 212.683 144.08ZM212.935 135.296C213.775 134.456 214.591 133.496 215.383 132.416C216.175 131.312 216.907 130.172 217.579 128.996C218.275 127.82 218.887 126.68 219.415 125.576C219.943 124.472 220.351 123.488 220.639 122.624C220.927 121.736 221.071 121.052 221.071 120.572C221.071 120.332 221.035 120.176 220.963 120.104C220.915 120.032 220.867 119.996 220.819 119.996C220.627 119.996 220.291 120.308 219.811 120.932C219.355 121.532 218.815 122.348 218.191 123.38C217.567 124.412 216.931 125.588 216.283 126.908C215.635 128.228 215.011 129.608 214.411 131.048C213.835 132.488 213.343 133.904 212.935 135.296ZM219.931 144.692C219.187 144.692 218.563 144.44 218.059 143.936C217.531 143.456 217.267 142.712 217.267 141.704C217.267 140.84 217.459 139.916 217.843 138.932C218.227 137.924 218.755 136.94 219.427 135.98C220.099 134.996 220.855 134.108 221.695 133.316C222.559 132.5 223.459 131.852 224.395 131.372C225.355 130.892 226.303 130.652 227.239 130.652C228.175 130.652 228.955 130.904 229.579 131.408C230.203 131.888 230.515 132.536 230.515 133.352C230.515 133.952 230.347 134.36 230.011 134.576C229.699 134.792 229.279 134.9 228.751 134.9C228.799 134.708 228.835 134.504 228.859 134.288C228.907 134.048 228.931 133.832 228.931 133.64C228.931 133.088 228.799 132.62 228.535 132.236C228.271 131.828 227.815 131.624 227.167 131.624C226.495 131.624 225.811 131.864 225.115 132.344C224.419 132.8 223.747 133.424 223.099 134.216C222.451 134.984 221.875 135.824 221.371 136.736C220.867 137.648 220.471 138.548 220.183 139.436C219.895 140.324 219.751 141.116 219.751 141.812C219.751 142.748 220.075 143.216 220.723 143.216C221.275 143.216 221.875 142.964 222.523 142.46C223.171 141.932 223.831 141.272 224.503 140.48C225.199 139.664 225.859 138.824 226.483 137.96C227.107 137.096 227.659 136.304 228.139 135.584C228.235 135.44 228.295 135.368 228.319 135.368C228.463 135.392 228.643 135.44 228.859 135.512C229.099 135.584 229.303 135.68 229.471 135.8C229.639 135.92 229.723 136.076 229.723 136.268C229.723 136.484 229.615 136.784 229.399 137.168C229.183 137.528 228.943 137.948 228.679 138.428C228.415 138.908 228.175 139.4 227.959 139.904C227.743 140.384 227.635 140.84 227.635 141.272C227.635 141.632 227.731 141.992 227.923 142.352C228.115 142.688 228.427 142.856 228.859 142.856C229.507 142.856 230.359 142.388 231.415 141.452C232.471 140.492 233.539 139.064 234.619 137.168L234.979 137.528C234.475 138.824 233.827 139.964 233.035 140.948C232.243 141.932 231.391 142.7 230.479 143.252C229.591 143.804 228.715 144.08 227.851 144.08C226.963 144.08 226.303 143.816 225.871 143.288C225.463 142.76 225.259 142.184 225.259 141.56C225.259 141.416 225.271 141.26 225.295 141.092C225.319 140.9 225.343 140.708 225.367 140.516C224.335 141.908 223.387 142.952 222.523 143.648C221.683 144.344 220.819 144.692 219.931 144.692ZM236.475 143.936C235.539 143.936 234.843 143.636 234.387 143.036C233.931 142.46 233.703 141.752 233.703 140.912C233.703 140.36 233.799 139.664 233.991 138.824C234.207 137.984 234.483 137.108 234.819 136.196C235.155 135.26 235.539 134.384 235.971 133.568C236.427 132.752 236.907 132.092 237.411 131.588C237.915 131.06 238.407 130.796 238.887 130.796C239.103 130.796 239.283 130.868 239.427 131.012C239.595 131.132 239.679 131.324 239.679 131.588C239.679 131.876 239.487 132.344 239.103 132.992C238.743 133.64 238.311 134.384 237.807 135.224C237.303 136.064 236.859 136.952 236.475 137.888C236.115 138.8 235.935 139.676 235.935 140.516C235.935 141.38 236.079 141.956 236.367 142.244C236.655 142.532 237.099 142.676 237.699 142.676C238.515 142.676 239.379 142.268 240.291 141.452C241.227 140.636 242.211 139.208 243.243 137.168L243.567 137.528C242.871 139.592 241.863 141.176 240.543 142.28C239.247 143.384 237.891 143.936 236.475 143.936ZM240.795 127.448C240.411 127.448 240.063 127.352 239.751 127.16C239.463 126.968 239.319 126.668 239.319 126.26C239.319 125.756 239.607 125.324 240.183 124.964C240.783 124.58 241.371 124.388 241.947 124.388C242.307 124.388 242.595 124.472 242.811 124.64C243.027 124.808 243.135 125.096 243.135 125.504C243.135 125.96 242.883 126.404 242.379 126.836C241.899 127.244 241.371 127.448 240.795 127.448ZM254.978 144.656C253.946 144.656 253.154 144.356 252.602 143.756C252.05 143.156 251.774 142.268 251.774 141.092C251.774 140.036 251.966 138.74 252.35 137.204C252.758 135.644 253.262 134.048 253.862 132.416C253.622 132.368 253.394 132.332 253.178 132.308C252.962 132.26 252.758 132.2 252.566 132.128V131.48C252.758 131.504 252.986 131.528 253.25 131.552C253.514 131.576 253.814 131.6 254.15 131.624C254.654 130.328 255.194 129.08 255.77 127.88C256.346 126.656 256.91 125.576 257.462 124.64C258.038 123.68 258.578 122.924 259.082 122.372C259.61 121.796 260.054 121.508 260.414 121.508C260.606 121.508 260.774 121.58 260.918 121.724C261.086 121.844 261.17 122.036 261.17 122.3C261.17 122.708 260.918 123.38 260.414 124.316C259.91 125.228 259.286 126.32 258.542 127.592C257.798 128.864 257.078 130.244 256.382 131.732C256.598 131.732 256.814 131.732 257.03 131.732C257.27 131.732 257.498 131.732 257.714 131.732C258.506 131.732 259.334 131.72 260.198 131.696C261.086 131.672 261.974 131.612 262.862 131.516V132.164C261.542 132.308 260.354 132.416 259.298 132.488C258.266 132.56 257.342 132.596 256.526 132.596C256.43 132.596 256.334 132.596 256.238 132.596C256.166 132.596 256.082 132.596 255.986 132.596C255.434 133.868 254.966 135.176 254.582 136.52C254.198 137.864 254.006 139.172 254.006 140.444C254.006 141.476 254.162 142.22 254.474 142.676C254.786 143.108 255.302 143.324 256.022 143.324C257.27 143.324 258.494 142.772 259.694 141.668C260.894 140.564 261.95 139.064 262.862 137.168L263.33 137.528C262.754 138.872 262.022 140.084 261.134 141.164C260.27 142.244 259.31 143.096 258.254 143.72C257.198 144.344 256.106 144.656 254.978 144.656ZM268.412 143.936C267.596 143.936 266.948 143.72 266.468 143.288C266.012 142.856 265.784 142.292 265.784 141.596C265.784 140.876 265.952 140.12 266.288 139.328C266.624 138.536 266.948 137.756 267.26 136.988C267.596 136.196 267.764 135.488 267.764 134.864C267.764 134.096 267.536 133.532 267.08 133.172C266.648 132.788 266.204 132.44 265.748 132.128C265.196 133.544 264.62 134.888 264.02 136.16C263.42 137.432 262.928 138.392 262.544 139.04L262.22 138.428C262.556 137.804 262.988 136.892 263.516 135.692C264.068 134.492 264.608 133.124 265.136 131.588C264.896 131.348 264.776 131.06 264.776 130.724C264.776 130.004 264.98 129.416 265.388 128.96C265.796 128.504 266.096 128.276 266.288 128.276C266.552 128.276 266.696 128.396 266.72 128.636C266.768 128.852 266.792 129.02 266.792 129.14C266.792 129.26 266.72 129.5 266.576 129.86C266.456 130.196 266.396 130.4 266.396 130.472C266.396 130.808 266.576 131.12 266.936 131.408C267.32 131.672 267.752 131.984 268.232 132.344C268.712 132.68 269.132 133.1 269.492 133.604C269.876 134.084 270.068 134.708 270.068 135.476C270.068 136.196 269.912 136.928 269.6 137.672C269.312 138.416 269.012 139.124 268.7 139.796C268.412 140.468 268.268 141.056 268.268 141.56C268.268 141.992 268.376 142.28 268.592 142.424C268.808 142.568 269.06 142.64 269.348 142.64C269.924 142.64 270.512 142.46 271.112 142.1C271.736 141.74 272.336 141.284 272.912 140.732C273.488 140.18 274.004 139.604 274.46 139.004C274.916 138.38 275.252 137.804 275.468 137.276L275.936 137.636C275.48 138.644 274.856 139.64 274.064 140.624C273.272 141.584 272.384 142.376 271.4 143C270.44 143.624 269.444 143.936 268.412 143.936ZM277.183 144.152C276.151 144.152 275.419 143.828 274.987 143.18C274.555 142.556 274.339 141.788 274.339 140.876C274.339 140.132 274.459 139.364 274.699 138.572C274.939 137.78 275.251 137.036 275.635 136.34C276.043 135.644 276.487 135.08 276.967 134.648C277.471 134.216 277.975 134 278.479 134C278.599 134 278.719 134.024 278.839 134.072C278.983 134.096 279.115 134.132 279.235 134.18C279.019 134.372 278.755 134.732 278.443 135.26C278.155 135.764 277.879 136.352 277.615 137.024C277.351 137.672 277.123 138.32 276.931 138.968C276.763 139.616 276.679 140.168 276.679 140.624C276.679 141.344 276.799 141.872 277.039 142.208C277.279 142.52 277.591 142.676 277.975 142.676C278.479 142.676 279.079 142.412 279.775 141.884C280.471 141.332 281.155 140.636 281.827 139.796C281.155 139.244 280.627 138.524 280.243 137.636C279.883 136.724 279.703 135.8 279.703 134.864C279.703 134.072 279.835 133.328 280.099 132.632C280.387 131.936 280.795 131.384 281.323 130.976C281.851 130.544 282.487 130.328 283.231 130.328C284.215 130.328 284.875 130.592 285.211 131.12C285.547 131.648 285.715 132.308 285.715 133.1C285.715 134.036 285.487 135.08 285.031 136.232C284.575 137.36 283.999 138.452 283.303 139.508C283.735 139.748 284.191 139.868 284.671 139.868C285.055 139.868 285.487 139.796 285.967 139.652C286.447 139.484 286.915 139.208 287.371 138.824C287.851 138.44 288.235 137.924 288.523 137.276L288.955 137.636C288.475 138.764 287.791 139.568 286.903 140.048C286.039 140.504 285.211 140.732 284.419 140.732C284.107 140.732 283.807 140.708 283.519 140.66C283.231 140.588 282.955 140.492 282.691 140.372C281.875 141.452 280.975 142.352 279.991 143.072C279.031 143.792 278.095 144.152 277.183 144.152ZM282.475 138.86C283.075 137.972 283.567 137.048 283.951 136.088C284.359 135.104 284.563 134.18 284.563 133.316C284.563 132.62 284.455 132.116 284.239 131.804C284.047 131.468 283.795 131.3 283.483 131.3C283.003 131.3 282.511 131.648 282.007 132.344C281.503 133.04 281.251 133.916 281.251 134.972C281.251 135.668 281.347 136.376 281.539 137.096C281.755 137.792 282.067 138.38 282.475 138.86ZM299.476 143.72C298.636 143.72 298 143.504 297.568 143.072C297.16 142.64 296.956 142.088 296.956 141.416C296.956 140.912 297.04 140.384 297.208 139.832C297.4 139.28 297.58 138.716 297.748 138.14C297.916 137.54 298 136.964 298 136.412C298 135.74 297.856 135.284 297.568 135.044C297.304 134.78 296.968 134.648 296.56 134.648C295.816 134.648 295.06 134.96 294.292 135.584C293.524 136.184 292.78 136.964 292.06 137.924C291.34 138.86 290.668 139.832 290.044 140.84C289.42 141.848 288.868 142.748 288.388 143.54C288.004 143.54 287.644 143.468 287.308 143.324C286.948 143.204 286.672 143.012 286.48 142.748C286.48 142.628 286.612 142.256 286.876 141.632C287.116 141.008 287.404 140.24 287.74 139.328C288.076 138.416 288.376 137.48 288.64 136.52C288.904 135.56 289.036 134.684 289.036 133.892C289.18 133.724 289.408 133.556 289.72 133.388C290.032 133.22 290.356 133.136 290.692 133.136C291.34 133.136 291.664 133.448 291.664 134.072C291.664 134.456 291.556 135.104 291.34 136.016C291.124 136.904 290.848 137.84 290.512 138.824C291.16 137.84 291.88 136.868 292.672 135.908C293.488 134.924 294.352 134.108 295.264 133.46C296.176 132.812 297.088 132.488 298 132.488C298.936 132.488 299.608 132.824 300.016 133.496C300.448 134.168 300.664 134.912 300.664 135.728C300.664 136.472 300.544 137.168 300.304 137.816C300.064 138.44 299.812 139.052 299.548 139.652C299.308 140.228 299.188 140.816 299.188 141.416C299.188 141.92 299.284 142.28 299.476 142.496C299.692 142.688 299.956 142.784 300.268 142.784C300.868 142.784 301.468 142.508 302.068 141.956C302.668 141.38 303.244 140.66 303.796 139.796C304.372 138.932 304.876 138.056 305.308 137.168L305.704 137.636C305.2 138.812 304.636 139.856 304.012 140.768C303.388 141.68 302.704 142.4 301.96 142.928C301.216 143.456 300.388 143.72 299.476 143.72ZM305.985 153.08C305.457 153.08 304.977 152.912 304.545 152.576C304.113 152.264 303.897 151.736 303.897 150.992C303.897 150.272 304.125 149.6 304.581 148.976C305.013 148.376 305.577 147.812 306.273 147.284C306.969 146.78 307.725 146.312 308.541 145.88C309.381 145.448 310.173 145.04 310.917 144.656C311.253 143.816 311.565 142.916 311.853 141.956C312.165 140.972 312.465 139.892 312.753 138.716C311.841 140.036 310.881 141.14 309.873 142.028C308.889 142.892 307.893 143.324 306.885 143.324C306.021 143.324 305.349 143 304.869 142.352C304.413 141.704 304.185 140.864 304.185 139.832C304.185 138.584 304.485 137.396 305.085 136.268C305.709 135.14 306.513 134.144 307.497 133.28C308.481 132.416 309.525 131.744 310.629 131.264C311.733 130.76 312.765 130.508 313.725 130.508C314.421 130.508 314.913 130.628 315.201 130.868C315.513 131.084 315.669 131.348 315.669 131.66C315.669 131.876 315.609 132.044 315.489 132.164C315.369 132.284 315.285 132.356 315.237 132.38C315.117 132.188 314.937 132.056 314.697 131.984C314.457 131.888 314.157 131.84 313.797 131.84C312.861 131.84 311.949 132.116 311.061 132.668C310.197 133.22 309.429 133.928 308.757 134.792C308.085 135.656 307.545 136.556 307.137 137.492C306.753 138.404 306.561 139.244 306.561 140.012C306.561 140.588 306.669 141.032 306.885 141.344C307.125 141.632 307.437 141.776 307.821 141.776C308.517 141.776 309.345 141.32 310.305 140.408C311.289 139.472 312.237 138.344 313.149 137.024C313.221 136.688 313.281 136.388 313.329 136.124C313.401 135.86 313.485 135.524 313.581 135.116C313.653 134.78 313.821 134.396 314.085 133.964C314.373 133.508 314.817 133.28 315.417 133.28C315.537 133.28 315.657 133.292 315.777 133.316C315.897 133.316 316.029 133.34 316.173 133.388C316.173 133.772 316.053 134.48 315.813 135.512C315.597 136.52 315.273 137.708 314.841 139.076C314.433 140.42 313.953 141.812 313.401 143.252C314.193 142.868 314.961 142.376 315.705 141.776C316.473 141.176 317.169 140.492 317.793 139.724C318.417 138.932 318.909 138.08 319.269 137.168L319.737 137.528C319.377 138.608 318.801 139.592 318.009 140.48C317.217 141.368 316.365 142.136 315.453 142.784C314.565 143.432 313.749 143.936 313.005 144.296C312.333 145.904 311.625 147.368 310.881 148.688C310.137 150.032 309.357 151.1 308.541 151.892C307.749 152.684 306.897 153.08 305.985 153.08ZM305.877 151.928C306.357 151.928 307.005 151.448 307.821 150.488C308.661 149.552 309.561 147.932 310.521 145.628C309.561 146.108 308.661 146.6 307.821 147.104C307.005 147.632 306.333 148.184 305.805 148.76C305.277 149.336 305.013 149.972 305.013 150.668C305.013 151.052 305.097 151.352 305.265 151.568C305.433 151.808 305.637 151.928 305.877 151.928ZM331.021 144.656C329.989 144.656 329.197 144.356 328.645 143.756C328.093 143.156 327.817 142.268 327.817 141.092C327.817 140.036 328.009 138.74 328.393 137.204C328.801 135.644 329.305 134.048 329.905 132.416C329.665 132.368 329.437 132.332 329.221 132.308C329.005 132.26 328.801 132.2 328.609 132.128V131.48C328.801 131.504 329.029 131.528 329.293 131.552C329.557 131.576 329.857 131.6 330.193 131.624C330.697 130.328 331.237 129.08 331.813 127.88C332.389 126.656 332.953 125.576 333.505 124.64C334.081 123.68 334.621 122.924 335.125 122.372C335.653 121.796 336.097 121.508 336.457 121.508C336.649 121.508 336.817 121.58 336.961 121.724C337.129 121.844 337.213 122.036 337.213 122.3C337.213 122.708 336.961 123.38 336.457 124.316C335.953 125.228 335.329 126.32 334.585 127.592C333.841 128.864 333.121 130.244 332.425 131.732C332.641 131.732 332.857 131.732 333.073 131.732C333.313 131.732 333.541 131.732 333.757 131.732C334.549 131.732 335.377 131.72 336.241 131.696C337.129 131.672 338.017 131.612 338.905 131.516V132.164C337.585 132.308 336.397 132.416 335.341 132.488C334.309 132.56 333.385 132.596 332.569 132.596C332.473 132.596 332.377 132.596 332.281 132.596C332.209 132.596 332.125 132.596 332.029 132.596C331.477 133.868 331.009 135.176 330.625 136.52C330.241 137.864 330.049 139.172 330.049 140.444C330.049 141.476 330.205 142.22 330.517 142.676C330.829 143.108 331.345 143.324 332.065 143.324C333.313 143.324 334.537 142.772 335.737 141.668C336.937 140.564 337.993 139.064 338.905 137.168L339.373 137.528C338.797 138.872 338.065 140.084 337.177 141.164C336.313 142.244 335.353 143.096 334.297 143.72C333.241 144.344 332.149 144.656 331.021 144.656ZM339.955 144.692C339.211 144.692 338.587 144.44 338.083 143.936C337.555 143.456 337.291 142.712 337.291 141.704C337.291 140.84 337.483 139.916 337.867 138.932C338.251 137.924 338.779 136.94 339.451 135.98C340.123 134.996 340.879 134.108 341.719 133.316C342.583 132.5 343.483 131.852 344.419 131.372C345.379 130.892 346.327 130.652 347.263 130.652C348.199 130.652 348.979 130.904 349.603 131.408C350.227 131.888 350.539 132.536 350.539 133.352C350.539 133.952 350.371 134.36 350.035 134.576C349.723 134.792 349.303 134.9 348.775 134.9C348.823 134.708 348.859 134.504 348.883 134.288C348.931 134.048 348.955 133.832 348.955 133.64C348.955 133.088 348.823 132.62 348.559 132.236C348.295 131.828 347.839 131.624 347.191 131.624C346.519 131.624 345.835 131.864 345.139 132.344C344.443 132.8 343.771 133.424 343.123 134.216C342.475 134.984 341.899 135.824 341.395 136.736C340.891 137.648 340.495 138.548 340.207 139.436C339.919 140.324 339.775 141.116 339.775 141.812C339.775 142.748 340.099 143.216 340.747 143.216C341.299 143.216 341.899 142.964 342.547 142.46C343.195 141.932 343.855 141.272 344.527 140.48C345.223 139.664 345.883 138.824 346.507 137.96C347.131 137.096 347.683 136.304 348.163 135.584C348.259 135.44 348.319 135.368 348.343 135.368C348.487 135.392 348.667 135.44 348.883 135.512C349.123 135.584 349.327 135.68 349.495 135.8C349.663 135.92 349.747 136.076 349.747 136.268C349.747 136.484 349.639 136.784 349.423 137.168C349.207 137.528 348.967 137.948 348.703 138.428C348.439 138.908 348.199 139.4 347.983 139.904C347.767 140.384 347.659 140.84 347.659 141.272C347.659 141.632 347.755 141.992 347.947 142.352C348.139 142.688 348.451 142.856 348.883 142.856C349.531 142.856 350.383 142.388 351.439 141.452C352.495 140.492 353.563 139.064 354.643 137.168L355.003 137.528C354.499 138.824 353.851 139.964 353.059 140.948C352.267 141.932 351.415 142.7 350.503 143.252C349.615 143.804 348.739 144.08 347.875 144.08C346.987 144.08 346.327 143.816 345.895 143.288C345.487 142.76 345.283 142.184 345.283 141.56C345.283 141.416 345.295 141.26 345.319 141.092C345.343 140.9 345.367 140.708 345.391 140.516C344.359 141.908 343.411 142.952 342.547 143.648C341.707 144.344 340.843 144.692 339.955 144.692ZM355.454 153.08C354.854 153.08 354.326 152.912 353.87 152.576C353.414 152.264 353.186 151.796 353.186 151.172C353.186 150.404 353.378 149.72 353.762 149.12C354.146 148.52 354.662 147.968 355.31 147.464C355.958 146.96 356.702 146.48 357.542 146.024C358.382 145.568 359.258 145.112 360.17 144.656C360.506 143.768 360.842 142.784 361.178 141.704C361.538 140.6 361.874 139.388 362.186 138.068C361.418 139.316 360.59 140.396 359.702 141.308C358.838 142.196 357.914 142.64 356.93 142.64C356.474 142.64 356.018 142.544 355.562 142.352C355.13 142.136 354.77 141.812 354.482 141.38C354.194 140.948 354.05 140.396 354.05 139.724C354.05 139.052 354.158 138.272 354.374 137.384C354.614 136.496 354.902 135.632 355.238 134.792C355.574 133.952 355.922 133.256 356.282 132.704C356.642 132.152 356.954 131.876 357.218 131.876C357.314 131.876 357.482 131.912 357.722 131.984C357.986 132.056 358.226 132.164 358.442 132.308C358.682 132.428 358.802 132.56 358.802 132.704C358.586 133.016 358.346 133.46 358.082 134.036C357.818 134.612 357.554 135.26 357.29 135.98C357.05 136.676 356.846 137.36 356.678 138.032C356.51 138.704 356.426 139.28 356.426 139.76C356.426 140.192 356.522 140.54 356.714 140.804C356.906 141.068 357.242 141.2 357.722 141.2C358.178 141.2 358.682 140.984 359.234 140.552C359.81 140.096 360.374 139.52 360.926 138.824C361.502 138.128 362.03 137.384 362.51 136.592C362.582 136.328 362.642 136.064 362.69 135.8C362.762 135.512 362.822 135.224 362.87 134.936C362.942 134.6 363.11 134.216 363.374 133.784C363.662 133.328 364.106 133.1 364.706 133.1C364.826 133.1 364.946 133.112 365.066 133.136C365.186 133.136 365.318 133.16 365.462 133.208C365.462 133.592 365.342 134.312 365.102 135.368C364.886 136.4 364.562 137.612 364.13 139.004C363.722 140.396 363.23 141.824 362.654 143.288C363.782 142.856 364.886 142.148 365.966 141.164C367.046 140.156 367.922 138.824 368.594 137.168L369.062 137.528C368.702 138.68 368.15 139.688 367.406 140.552C366.686 141.392 365.87 142.124 364.958 142.748C364.046 143.348 363.146 143.852 362.258 144.26C361.634 145.796 360.95 147.236 360.206 148.58C359.486 149.924 358.718 151.004 357.902 151.82C357.11 152.66 356.294 153.08 355.454 153.08ZM355.274 151.928C355.634 151.928 356.234 151.448 357.074 150.488C357.938 149.552 358.85 147.896 359.81 145.52C358.826 146.048 357.914 146.564 357.074 147.068C356.234 147.596 355.562 148.16 355.058 148.76C354.554 149.36 354.302 150.056 354.302 150.848C354.302 151.04 354.374 151.268 354.518 151.532C354.662 151.796 354.914 151.928 355.274 151.928ZM380.598 145.628C379.35 145.628 378.414 145.22 377.79 144.404C377.19 143.588 376.89 142.484 376.89 141.092C376.89 139.892 377.094 138.476 377.502 136.844C377.91 135.212 378.45 133.508 379.122 131.732C379.794 129.932 380.538 128.18 381.354 126.476C382.194 124.772 383.034 123.236 383.874 121.868C384.714 120.476 385.506 119.372 386.25 118.556C386.994 117.716 387.606 117.296 388.086 117.296C388.494 117.296 388.782 117.548 388.95 118.052C389.142 118.556 389.238 119.06 389.238 119.564C389.238 120.236 389.094 121.052 388.806 122.012C388.518 122.972 388.11 124.004 387.582 125.108C387.054 126.188 386.442 127.256 385.746 128.312C385.05 129.368 384.294 130.34 383.478 131.228C382.686 132.092 381.87 132.776 381.03 133.28C380.886 133.544 380.67 134.096 380.382 134.936C380.118 135.752 379.866 136.7 379.626 137.78C379.41 138.836 379.302 139.868 379.302 140.876C379.302 141.86 379.446 142.664 379.734 143.288C380.046 143.936 380.562 144.26 381.282 144.26C381.978 144.26 382.698 143.972 383.442 143.396C384.186 142.844 384.786 142.124 385.242 141.236C384.354 140.78 383.694 140.12 383.262 139.256C382.83 138.368 382.614 137.48 382.614 136.592C382.614 135.44 382.914 134.516 383.514 133.82C384.114 133.124 384.822 132.776 385.638 132.776C386.334 132.776 386.886 133.064 387.294 133.64C387.702 134.192 387.906 135.008 387.906 136.088C387.906 136.88 387.798 137.696 387.582 138.536C387.366 139.376 387.054 140.192 386.646 140.984C386.79 141.008 386.934 141.032 387.078 141.056C387.246 141.08 387.414 141.092 387.582 141.092C388.446 141.092 389.166 140.888 389.742 140.48C390.318 140.048 390.798 139.532 391.182 138.932C391.59 138.308 391.926 137.72 392.19 137.168L392.622 137.636C391.95 139.292 391.146 140.396 390.21 140.948C389.298 141.476 388.386 141.74 387.474 141.74C387.282 141.74 387.09 141.728 386.898 141.704C386.706 141.68 386.514 141.656 386.322 141.632C385.674 142.736 384.87 143.672 383.91 144.44C382.974 145.232 381.87 145.628 380.598 145.628ZM385.602 140.516C385.866 139.964 386.07 139.388 386.214 138.788C386.358 138.164 386.43 137.528 386.43 136.88C386.43 136.04 386.31 135.38 386.07 134.9C385.854 134.42 385.578 134.18 385.242 134.18C384.882 134.18 384.558 134.432 384.27 134.936C384.006 135.416 383.874 136.028 383.874 136.772C383.874 137.42 384.006 138.104 384.27 138.824C384.534 139.544 384.978 140.108 385.602 140.516ZM381.426 131.876C382.098 131.348 382.746 130.676 383.37 129.86C384.018 129.044 384.618 128.18 385.17 127.268C385.722 126.332 386.214 125.42 386.646 124.532C387.078 123.644 387.414 122.84 387.654 122.12C387.894 121.4 388.014 120.86 388.014 120.5C388.014 120.38 388.002 120.308 387.978 120.284C387.954 120.236 387.918 120.212 387.87 120.212C387.678 120.212 387.306 120.56 386.754 121.256C386.226 121.928 385.626 122.84 384.954 123.992C384.306 125.12 383.658 126.38 383.01 127.772C382.362 129.14 381.834 130.508 381.426 131.876ZM393.146 144.692C392.402 144.692 391.778 144.44 391.274 143.936C390.746 143.456 390.482 142.712 390.482 141.704C390.482 140.84 390.674 139.916 391.058 138.932C391.442 137.924 391.97 136.94 392.642 135.98C393.314 134.996 394.07 134.108 394.91 133.316C395.774 132.5 396.674 131.852 397.61 131.372C398.57 130.892 399.518 130.652 400.454 130.652C401.39 130.652 402.17 130.904 402.794 131.408C403.418 131.888 403.73 132.536 403.73 133.352C403.73 133.952 403.562 134.36 403.226 134.576C402.914 134.792 402.494 134.9 401.966 134.9C402.014 134.708 402.05 134.504 402.074 134.288C402.122 134.048 402.146 133.832 402.146 133.64C402.146 133.088 402.014 132.62 401.75 132.236C401.486 131.828 401.03 131.624 400.382 131.624C399.71 131.624 399.026 131.864 398.33 132.344C397.634 132.8 396.962 133.424 396.314 134.216C395.666 134.984 395.09 135.824 394.586 136.736C394.082 137.648 393.686 138.548 393.398 139.436C393.11 140.324 392.966 141.116 392.966 141.812C392.966 142.748 393.29 143.216 393.938 143.216C394.49 143.216 395.09 142.964 395.738 142.46C396.386 141.932 397.046 141.272 397.718 140.48C398.414 139.664 399.074 138.824 399.698 137.96C400.322 137.096 400.874 136.304 401.354 135.584C401.45 135.44 401.51 135.368 401.534 135.368C401.678 135.392 401.858 135.44 402.074 135.512C402.314 135.584 402.518 135.68 402.686 135.8C402.854 135.92 402.938 136.076 402.938 136.268C402.938 136.484 402.83 136.784 402.614 137.168C402.398 137.528 402.158 137.948 401.894 138.428C401.63 138.908 401.39 139.4 401.174 139.904C400.958 140.384 400.85 140.84 400.85 141.272C400.85 141.632 400.946 141.992 401.138 142.352C401.33 142.688 401.642 142.856 402.074 142.856C402.722 142.856 403.574 142.388 404.63 141.452C405.686 140.492 406.754 139.064 407.834 137.168L408.194 137.528C407.69 138.824 407.042 139.964 406.25 140.948C405.458 141.932 404.606 142.7 403.694 143.252C402.806 143.804 401.93 144.08 401.066 144.08C400.178 144.08 399.518 143.816 399.086 143.288C398.678 142.76 398.474 142.184 398.474 141.56C398.474 141.416 398.486 141.26 398.51 141.092C398.534 140.9 398.558 140.708 398.582 140.516C397.55 141.908 396.602 142.952 395.738 143.648C394.898 144.344 394.034 144.692 393.146 144.692ZM394.694 150.524C394.262 150.524 393.914 150.416 393.65 150.2C393.386 150.008 393.254 149.72 393.254 149.336C393.254 148.808 393.506 148.376 394.01 148.04C394.538 147.728 395.066 147.572 395.594 147.572C396.002 147.572 396.314 147.668 396.53 147.86C396.746 148.076 396.854 148.376 396.854 148.76C396.854 149.216 396.626 149.624 396.17 149.984C395.714 150.344 395.222 150.524 394.694 150.524ZM418.726 143.72C417.886 143.72 417.25 143.504 416.818 143.072C416.41 142.64 416.206 142.088 416.206 141.416C416.206 140.912 416.29 140.384 416.458 139.832C416.65 139.28 416.83 138.716 416.998 138.14C417.166 137.54 417.25 136.964 417.25 136.412C417.25 135.74 417.106 135.284 416.818 135.044C416.554 134.78 416.218 134.648 415.81 134.648C415.066 134.648 414.31 134.96 413.542 135.584C412.774 136.184 412.03 136.964 411.31 137.924C410.59 138.86 409.918 139.832 409.294 140.84C408.67 141.848 408.118 142.748 407.638 143.54C407.254 143.54 406.894 143.468 406.558 143.324C406.198 143.204 405.922 143.012 405.73 142.748C405.73 142.628 405.862 142.256 406.126 141.632C406.366 141.008 406.654 140.24 406.99 139.328C407.326 138.416 407.626 137.48 407.89 136.52C408.154 135.56 408.286 134.684 408.286 133.892C408.43 133.724 408.658 133.556 408.97 133.388C409.282 133.22 409.606 133.136 409.942 133.136C410.59 133.136 410.914 133.448 410.914 134.072C410.914 134.456 410.806 135.104 410.59 136.016C410.374 136.904 410.098 137.84 409.762 138.824C410.41 137.84 411.13 136.868 411.922 135.908C412.738 134.924 413.602 134.108 414.514 133.46C415.426 132.812 416.338 132.488 417.25 132.488C418.186 132.488 418.858 132.824 419.266 133.496C419.698 134.168 419.914 134.912 419.914 135.728C419.914 136.472 419.794 137.168 419.554 137.816C419.314 138.44 419.062 139.052 418.798 139.652C418.558 140.228 418.438 140.816 418.438 141.416C418.438 141.92 418.534 142.28 418.726 142.496C418.942 142.688 419.206 142.784 419.518 142.784C420.118 142.784 420.718 142.508 421.318 141.956C421.918 141.38 422.494 140.66 423.046 139.796C423.622 138.932 424.126 138.056 424.558 137.168L424.954 137.636C424.45 138.812 423.886 139.856 423.262 140.768C422.638 141.68 421.954 142.4 421.21 142.928C420.466 143.456 419.638 143.72 418.726 143.72Z" fill="black"/>
</svg>
