<?xml version="1.0" encoding="iso-8859-1"?>
<!-- Generator: Adobe Illustrator 16.0.0, SVG Export Plug-In . SVG Version: 6.00 Build 0)  -->
<!DOCTYPE svg PUBLIC "-//W3C//DTD SVG 1.1//EN" "http://www.w3.org/Graphics/SVG/1.1/DTD/svg11.dtd">
<svg version="1.1" id="Capa_1" xmlns="http://www.w3.org/2000/svg" xmlns:xlink="http://www.w3.org/1999/xlink" x="0px" y="0px"
	 width="791.932px" height="791.932px" viewBox="0 0 791.932 791.932" style="enable-background:new 0 0 791.932 791.932;"
	 xml:space="preserve">
<g>
	<path d="M740.191,468.159l-117.91-41.596c-42.82-14.284-56.314-25.663-60.307-30.275c35.076-34.097,43.736-83.504,45.873-106.435
		c18.371-12.588,24.807-27.775,26.844-39.1c4.896-27.154-11.24-52.115-19.922-63.208c-10.383-83.03-64.957-128.638-154.338-128.638
		c-101.263,0-145.928,67.759-154.289,128.569c-8.668,11.077-24.88,36.081-19.972,63.276c2.036,11.325,8.475,26.528,26.845,39.1
		c2.139,22.89,10.816,72.136,45.853,106.394c-2.181,2.523-7.229,7.107-18.536,13.119l-16.211,8.664l6.293,17.25
		c1.921,5.291,2.851,10.007,2.851,14.424V584.39l133.813,21.286c18.846,3.017,33.41,18.348,35.438,37.343
		c1.645,15.307-5.361,30.333-18.309,39.191l-56.318,38.623h364.043V580.627C791.932,485.727,755.234,470.428,740.191,468.159z"/>
	<path d="M305.152,434.021c-4.413-4.008-10.374-5.976-16.28-5.368l-269.79,26.651C8.252,456.375,0,465.49,0,476.379v208.5
		c0,10.896,8.252,20,19.082,21.079l269.79,26.65c0.689,0.084,1.382,0.106,2.074,0.106c2.417,0,4.784-0.521,7.037-1.301l0.629,1.61
		l169.485-65.837c8.904-3.473,14.396-12.479,13.369-21.983c-1.014-9.507-8.277-17.134-17.711-18.643l-151.651-24.115V449.702
		C312.105,443.731,309.586,438.031,305.152,434.021z M135.152,612.393c-17.451,0-31.596-14.156-31.596-31.614
		c0-17.44,14.145-31.58,31.596-31.58c17.45,0,31.595,14.14,31.595,31.58C166.746,598.236,152.602,612.393,135.152,612.393z
		 M379.831,656.074l-67.727,26.325v-37.067L379.831,656.074z"/>
</g>
<g>
</g>
<g>
</g>
<g>
</g>
<g>
</g>
<g>
</g>
<g>
</g>
<g>
</g>
<g>
</g>
<g>
</g>
<g>
</g>
<g>
</g>
<g>
</g>
<g>
</g>
<g>
</g>
<g>
</g>
</svg>
